<svg height="30" viewBox="0 0 1188 284" xmlns="http://www.w3.org/2000/svg">
<path d="M552.127 231.47H578.481L578.923 37.6033L552.569 45.6215L552.127 231.47Z" fill="#DAE7EC"/>
<path d="M746.183 80.0117V106.063C734.066 87.5846 714.679 76.0737 688.931 76.0737C646.826 76.0737 612.293 110.909 612.293 155.741C612.293 200.573 646.826 235.408 688.931 235.408C714.679 235.408 734.066 223.897 746.183 205.419V231.47H772.536V80.0117H746.183ZM692.263 209.963C661.972 209.963 638.647 186.638 638.647 155.741C638.647 124.843 661.972 101.519 692.263 101.519C722.858 101.519 746.183 124.843 746.183 155.741C746.183 186.638 722.858 209.963 692.263 209.963Z" fill="#DAE7EC"/>
<path d="M836.977 120.905C836.977 107.274 850.305 100.61 863.936 100.61C877.265 100.61 890.593 106.365 896.349 119.997L918.461 107.577C908.768 87.8875 888.776 76.0737 863.936 76.0737C833.342 76.0737 810.32 94.5517 810.32 121.208C810.32 176.036 895.137 157.558 895.137 189.971C895.137 204.813 881.203 210.569 865.148 210.569C846.367 210.569 832.433 201.481 827.586 186.941L804.868 199.967C813.652 220.868 834.856 235.408 865.148 235.408C897.56 235.408 921.794 218.142 921.794 189.971C921.794 134.234 836.977 153.318 836.977 120.905Z" fill="#DAE7EC"/>
<path d="M1020.07 105.457V80.0117H979.785V37.6033L953.431 45.4791V187.547C953.431 225.412 974.635 237.529 1020.07 231.47V207.843C993.113 209.054 979.785 210.569 979.785 187.547V105.457H1020.07Z" fill="#DAE7EC"/>
<path d="M1187.8 231.47L1129.95 153.318L1184.47 80.0117H1153.57L1114.5 132.719L1075.42 80.0117H1044.22L1099.05 153.621L1040.89 231.47H1071.79L1114.5 174.219L1156.91 231.47H1187.8Z" fill="#DAE7EC"/>
<path fill-rule="evenodd" clip-rule="evenodd" d="M386.928 164.514H519.034V151.458C519.034 107.326 483.258 71.5503 439.126 71.5503C394.995 71.5503 359.219 107.326 359.219 151.458C359.219 195.589 394.995 231.365 439.126 231.365H491.353V205.252H439.126C413.92 205.252 392.762 187.915 386.928 164.514ZM439.126 97.6638C413.92 97.6638 392.762 115.001 386.928 138.401H491.325C485.49 115.001 464.333 97.6638 439.126 97.6638Z" fill="#DAE7EC"/>
<mask id="mask0" mask-type="alpha" maskUnits="userSpaceOnUse" x="0" y="0" width="207" height="284">
<path fill-rule="evenodd" clip-rule="evenodd" d="M0 90.4817C0 40.51 40.5101 0 90.4817 0H180.963C194.955 0 206.298 11.3428 206.298 25.3349C206.298 39.3269 194.955 50.6698 180.963 50.6698H90.4817C68.4942 50.6698 50.6698 68.4942 50.6698 90.4817V192.545C50.6698 214.533 68.4942 232.357 90.4817 232.357H180.963C194.955 232.357 206.298 243.7 206.298 257.692C206.298 271.684 194.955 283.027 180.963 283.027H90.4817C40.51 283.027 0 242.517 0 192.545V90.4817Z" fill="url(#paint0_linear)"/>
</mask>
<g mask="url(#mask0)">
<path fill-rule="evenodd" clip-rule="evenodd" d="M0 90.4817C0 40.51 40.5101 0 90.4817 0H180.963C194.955 0 206.298 11.3428 206.298 25.3349C206.298 39.3269 194.955 50.6698 180.963 50.6698H90.4817C68.4942 50.6698 50.6698 68.4942 50.6698 90.4817V192.545C50.6698 214.533 68.4942 232.357 90.4817 232.357H180.963C194.955 232.357 206.298 243.7 206.298 257.692C206.298 271.684 194.955 283.027 180.963 283.027H90.4817C40.51 283.027 0 242.517 0 192.545V90.4817Z" fill="#FFDBA6"/>
<g filter="url(#filter0_f)">
<ellipse cx="150.053" cy="259.888" rx="103.646" ry="54.1432" transform="rotate(-19.1842 150.053 259.888)" fill="#FFB924"/>
</g>
<g filter="url(#filter1_f)">
<ellipse cx="154.126" cy="61.8151" rx="103.646" ry="54.1432" transform="rotate(-10.0419 154.126 61.8151)" fill="#FF9A24"/>
</g>
<g filter="url(#filter2_f)">
<ellipse cx="-18.6559" cy="72.3769" rx="167.742" ry="54.1432" transform="rotate(-32.4868 -18.6559 72.3769)" fill="#FFCF86"/>
</g>
<g opacity="0.7" filter="url(#filter3_f)">
<ellipse cx="37.9056" cy="158.469" rx="141.813" ry="87.6807" transform="rotate(40.1615 37.9056 158.469)" fill="#FFC803"/>
</g>
<g opacity="0.4" filter="url(#filter4_f)">
<ellipse cx="55.1658" cy="276.487" rx="156.854" ry="54.1432" transform="rotate(29.1826 55.1658 276.487)" fill="#FF7676"/>
</g>
<g opacity="0.6" filter="url(#filter5_f)">
<ellipse cx="184.609" cy="79.8773" rx="46.3384" ry="87.6807" transform="rotate(40.1615 184.609 79.8773)" fill="#FFC803"/>
</g>
<g opacity="0.6" filter="url(#filter6_f)">
<ellipse cx="177.417" cy="271.903" rx="36.7381" ry="65.1547" transform="rotate(64.0102 177.417 271.903)" fill="#FFE588"/>
</g>
<path fill-rule="evenodd" clip-rule="evenodd" d="M24.7504 99.4274C24.7504 58.1845 58.4687 24.7505 100.062 24.7505H221.783C233.429 24.7505 242.87 34.112 242.87 45.66C242.87 57.208 233.429 66.5696 221.783 66.5696H100.062C81.7612 66.5696 66.9251 81.2805 66.9251 99.4274V183.663C66.9251 201.81 81.7612 216.521 100.062 216.521H221.783C233.429 216.521 242.87 225.882 242.87 237.43C242.87 248.978 233.429 258.34 221.783 258.34H100.062C58.4687 258.34 24.7504 224.906 24.7504 183.663V99.4274Z" fill="white" fill-opacity="0.1"/>
</g>
<mask id="mask1" mask-type="alpha" maskUnits="userSpaceOnUse" x="88" y="105" width="188" height="73">
<path d="M88.1765 141.777C88.1765 122 104.209 105.968 123.986 105.968H125.679C137.807 105.968 149.421 110.863 157.89 119.544L164.978 126.808C169.59 131.536 175.916 134.202 182.521 134.202V134.202C189.126 134.202 195.452 131.536 200.064 126.808L207.474 119.213C215.737 110.743 227.068 105.968 238.901 105.968H239.678C259.456 105.968 275.488 122 275.488 141.777V141.777C275.488 161.554 259.456 177.587 239.678 177.587H239.107C227.159 177.587 215.733 172.69 207.493 164.038L199.975 156.144C195.425 151.367 189.117 148.664 182.521 148.664V148.664C175.925 148.664 169.616 151.367 165.067 156.144L157.872 163.699C149.426 172.567 137.714 177.587 125.467 177.587H123.986C104.209 177.587 88.1765 161.554 88.1765 141.777V141.777Z" fill="url(#paint1_linear)"/>
</mask>
<g mask="url(#mask1)">
<path d="M88.1765 141.777C88.1765 122 104.209 105.968 123.986 105.968H125.679C137.807 105.968 149.421 110.863 157.89 119.544L164.978 126.808C169.59 131.536 175.916 134.202 182.521 134.202V134.202C189.126 134.202 195.452 131.536 200.064 126.808L207.474 119.213C215.737 110.743 227.068 105.968 238.901 105.968H239.678C259.456 105.968 275.488 122 275.488 141.777V141.777C275.488 161.554 259.456 177.587 239.678 177.587H239.107C227.159 177.587 215.733 172.69 207.493 164.038L199.975 156.144C195.425 151.367 189.117 148.664 182.521 148.664V148.664C175.925 148.664 169.616 151.367 165.067 156.144L157.872 163.699C149.426 172.567 137.714 177.587 125.467 177.587H123.986C104.209 177.587 88.1765 161.554 88.1765 141.777V141.777Z" fill="url(#paint2_linear)"/>
<g filter="url(#filter7_f)">
<path d="M88.1765 141.777C88.1765 122 104.209 105.968 123.986 105.968H125.679C137.807 105.968 149.421 110.863 157.89 119.544L164.978 126.808C169.59 131.536 175.916 134.202 182.521 134.202V134.202C189.126 134.202 195.452 131.536 200.064 126.808L207.474 119.213C215.737 110.743 227.068 105.968 238.901 105.968H239.678C259.456 105.968 275.488 122 275.488 141.777V141.777C275.488 161.554 259.456 177.587 239.678 177.587H239.107C227.159 177.587 215.733 172.69 207.493 164.038L199.975 156.144C195.425 151.367 189.117 148.664 182.521 148.664V148.664C175.925 148.664 169.616 151.367 165.067 156.144L157.872 163.699C149.426 172.567 137.714 177.587 125.467 177.587H123.986C104.209 177.587 88.1765 161.554 88.1765 141.777V141.777Z" fill="url(#paint3_linear)" fill-opacity="0.6"/>
</g>
</g>
<defs>
<filter id="filter0_f" x="0.371338" y="140.693" width="299.363" height="238.39" filterUnits="userSpaceOnUse" color-interpolation-filters="sRGB">
<feFlood flood-opacity="0" result="BackgroundImageFix"/>
<feBlend mode="normal" in="SourceGraphic" in2="BackgroundImageFix" result="shape"/>
<feGaussianBlur stdDeviation="17" result="effect1_foregroundBlur"/>
</filter>
<filter id="filter1_f" x="-51.3728" y="-103.571" width="410.997" height="330.773" filterUnits="userSpaceOnUse" color-interpolation-filters="sRGB">
<feFlood flood-opacity="0" result="BackgroundImageFix"/>
<feBlend mode="normal" in="SourceGraphic" in2="BackgroundImageFix" result="shape"/>
<feGaussianBlur stdDeviation="47" result="effect1_foregroundBlur"/>
</filter>
<filter id="filter2_f" x="-253.229" y="-127.389" width="469.147" height="399.531" filterUnits="userSpaceOnUse" color-interpolation-filters="sRGB">
<feFlood flood-opacity="0" result="BackgroundImageFix"/>
<feBlend mode="normal" in="SourceGraphic" in2="BackgroundImageFix" result="shape"/>
<feGaussianBlur stdDeviation="32" result="effect1_foregroundBlur"/>
</filter>
<filter id="filter3_f" x="-191.021" y="-64" width="457.853" height="444.939" filterUnits="userSpaceOnUse" color-interpolation-filters="sRGB">
<feFlood flood-opacity="0" result="BackgroundImageFix"/>
<feBlend mode="normal" in="SourceGraphic" in2="BackgroundImageFix" result="shape"/>
<feGaussianBlur stdDeviation="32" result="effect1_foregroundBlur"/>
</filter>
<filter id="filter4_f" x="-172.178" y="88.7351" width="454.688" height="375.504" filterUnits="userSpaceOnUse" color-interpolation-filters="sRGB">
<feFlood flood-opacity="0" result="BackgroundImageFix"/>
<feBlend mode="normal" in="SourceGraphic" in2="BackgroundImageFix" result="shape"/>
<feGaussianBlur stdDeviation="32" result="effect1_foregroundBlur"/>
</filter>
<filter id="filter5_f" x="58.6469" y="-51.0166" width="251.925" height="261.788" filterUnits="userSpaceOnUse" color-interpolation-filters="sRGB">
<feFlood flood-opacity="0" result="BackgroundImageFix"/>
<feBlend mode="normal" in="SourceGraphic" in2="BackgroundImageFix" result="shape"/>
<feGaussianBlur stdDeviation="17" result="effect1_foregroundBlur"/>
</filter>
<filter id="filter6_f" x="68.7523" y="176.328" width="217.33" height="191.149" filterUnits="userSpaceOnUse" color-interpolation-filters="sRGB">
<feFlood flood-opacity="0" result="BackgroundImageFix"/>
<feBlend mode="normal" in="SourceGraphic" in2="BackgroundImageFix" result="shape"/>
<feGaussianBlur stdDeviation="17" result="effect1_foregroundBlur"/>
</filter>
<filter id="filter7_f" x="35.5802" y="53.3712" width="292.504" height="176.812" filterUnits="userSpaceOnUse" color-interpolation-filters="sRGB">
<feFlood flood-opacity="0" result="BackgroundImageFix"/>
<feBlend mode="normal" in="SourceGraphic" in2="BackgroundImageFix" result="shape"/>
<feGaussianBlur stdDeviation="26.2981" result="effect1_foregroundBlur"/>
</filter>
<linearGradient id="paint0_linear" x1="-26.2981" y1="140.772" x2="195.689" y2="140.772" gradientUnits="userSpaceOnUse">
<stop stop-color="#FFAB2E"/>
<stop offset="1" stop-color="#FFE600"/>
</linearGradient>
<linearGradient id="paint1_linear" x1="88.3215" y1="55.152" x2="239.15" y2="258.576" gradientUnits="userSpaceOnUse">
<stop stop-color="#2EFFCD"/>
<stop offset="1" stop-color="#54ADFF"/>
</linearGradient>
<linearGradient id="paint2_linear" x1="88.3215" y1="55.152" x2="239.15" y2="258.576" gradientUnits="userSpaceOnUse">
<stop stop-color="#2EFFCD"/>
<stop offset="1" stop-color="#54ADFF"/>
</linearGradient>
<linearGradient id="paint3_linear" x1="88.3215" y1="55.152" x2="239.15" y2="258.576" gradientUnits="userSpaceOnUse">
<stop stop-color="#2EFFCD"/>
<stop offset="1" stop-color="#54ADFF"/>
</linearGradient>
</defs>
</svg>
