<?xml version="1.0" encoding="UTF-8" standalone="no"?>
<!-- Created with Inkscape (http://www.inkscape.org/) -->

<svg
   xmlns:dc="http://purl.org/dc/elements/1.1/"
   xmlns:cc="http://creativecommons.org/ns#"
   xmlns:rdf="http://www.w3.org/1999/02/22-rdf-syntax-ns#"
   xmlns:svg="http://www.w3.org/2000/svg"
   xmlns="http://www.w3.org/2000/svg"
   xmlns:sodipodi="http://sodipodi.sourceforge.net/DTD/sodipodi-0.dtd"
   xmlns:inkscape="http://www.inkscape.org/namespaces/inkscape"
   version="1.1"
   id="svg964"
   xml:space="preserve"
   width="103.1644"
   height="30"
   viewBox="0 0 447.54666 129.98666"
   sodipodi:docname="ELASTX LIGHT_cmyk.svg"
   inkscape:version="0.92.4 (5da689c313, 2019-01-14)"><metadata
     id="metadata970"><rdf:RDF><cc:Work
         rdf:about=""><dc:format>image/svg+xml</dc:format><dc:type
           rdf:resource="http://purl.org/dc/dcmitype/StillImage" /><dc:title></dc:title></cc:Work></rdf:RDF></metadata><defs
     id="defs968"><clipPath
       clipPathUnits="userSpaceOnUse"
       id="clipPath982"><path
         d="m 380.16,489.109 c 0,1.211 -0.117,2.461 -0.164,3.696 h -0.058 c -2.122,31.66 -27.793,58.574 -63.977,70.703 0,0 -73.066,19.004 -75.762,62.422 v 242.886 c 0,52.934 -42.929,95.903 -95.898,95.903 h -38.223 c -52.9686,0 -95.9178,-42.969 -95.9178,-95.903 V 582.488 c 0,-48.457 36.0156,-88.433 82.7148,-94.859 C 46.1758,481.16 10.1602,441.199 10.1602,392.727 V 160.52 c 0,-52.93 42.9492,-95.8794 95.9178,-95.8794 h 38.223 c 52.969,0 95.898,42.9494 95.898,95.8794 v 191.753 c 2.871,43.008 75.762,61.86 75.762,61.86 36.184,12.183 61.855,39.019 63.977,70.703 h 0.058 c 0.047,1.25 0.164,2.48 0.164,3.73 0,0.055 -0.019,0.172 -0.019,0.235 0,0.117 0.019,0.215 0.019,0.308 z"
         id="path980"
         inkscape:connector-curvature="0" /></clipPath><linearGradient
       x1="0"
       y1="0"
       x2="1"
       y2="0"
       gradientUnits="userSpaceOnUse"
       gradientTransform="matrix(-3.93e-5,900.073,900.073,3.93e-5,195.161,64.639)"
       spreadMethod="pad"
       id="linearGradient1000"><stop
         style="stop-opacity:1;stop-color:#231f20"
         offset="0"
         id="stop984" /><stop
         style="stop-opacity:1;stop-color:#231f20"
         offset="0.030538"
         id="stop986" /><stop
         style="stop-opacity:1;stop-color:#d3d2d2"
         offset="0.28380425"
         id="stop988" /><stop
         style="stop-opacity:1;stop-color:#d3d2d2"
         offset="0.507023"
         id="stop990" /><stop
         style="stop-opacity:1;stop-color:#d3d2d2"
         offset="0.69574894"
         id="stop992" /><stop
         style="stop-opacity:1;stop-color:#231f20"
         offset="0.914159"
         id="stop994" /><stop
         style="stop-opacity:1;stop-color:#231f20"
         offset="0.97736177"
         id="stop996" /><stop
         style="stop-opacity:1;stop-color:#231f20"
         offset="1"
         id="stop998" /></linearGradient><clipPath
       clipPathUnits="userSpaceOnUse"
       id="clipPath1012"><path
         d="M 534.223,974.875 H 86.8594 C 38.9492,974.875 0.00390625,935.91 0.00390625,888 V 868.816 655.93 H 10.1602 c 0,36.636 29.7968,66.465 66.5234,66.519 h 163.5154 10.168 218.719 65.137 c 69.601,0 126.211,56.621 126.211,126.235 0,69.589 -56.61,126.191 -126.211,126.191 z"
         id="path1010"
         inkscape:connector-curvature="0" /></clipPath><linearGradient
       x1="0"
       y1="0"
       x2="1"
       y2="0"
       gradientUnits="userSpaceOnUse"
       gradientTransform="matrix(660.43,0,0,-660.43,0.00488281,815.4)"
       spreadMethod="pad"
       id="linearGradient1022"><stop
         style="stop-opacity:1;stop-color:#fff200"
         offset="0"
         id="stop1014" /><stop
         style="stop-opacity:1;stop-color:#f89c2b"
         offset="0.238666"
         id="stop1016" /><stop
         style="stop-opacity:1;stop-color:#fddc04"
         offset="0.823892"
         id="stop1018" /><stop
         style="stop-opacity:1;stop-color:#fddc04"
         offset="1"
         id="stop1020" /></linearGradient><clipPath
       clipPathUnits="userSpaceOnUse"
       id="clipPath1032"><path
         d="M 534.223,252.41 H 76.5586 C 39.957,252.488 10.1602,282.316 10.1602,318.953 H 0.00390625 V 160.52 86.8633 C 0.00390625,38.9766 38.9492,0.0117188 86.8594,0.0117188 H 534.223 c 69.601,0 126.211,56.6210812 126.211,126.1872812 0,69.594 -56.61,126.211 -126.211,126.211 z"
         id="path1030"
         inkscape:connector-curvature="0" /></clipPath><linearGradient
       x1="0"
       y1="0"
       x2="1"
       y2="0"
       gradientUnits="userSpaceOnUse"
       gradientTransform="matrix(660.43,0,0,-660.43,0.00488281,159.482)"
       spreadMethod="pad"
       id="linearGradient1042"><stop
         style="stop-opacity:1;stop-color:#fff200"
         offset="0"
         id="stop1034" /><stop
         style="stop-opacity:1;stop-color:#f89c2b"
         offset="0.238666"
         id="stop1036" /><stop
         style="stop-opacity:1;stop-color:#fddc04"
         offset="0.823892"
         id="stop1038" /><stop
         style="stop-opacity:1;stop-color:#fddc04"
         offset="1"
         id="stop1040" /></linearGradient></defs><sodipodi:namedview
     pagecolor="#ffffff"
     bordercolor="#666666"
     borderopacity="1"
     objecttolerance="10"
     gridtolerance="10"
     guidetolerance="10"
     inkscape:pageopacity="0"
     inkscape:pageshadow="2"
     inkscape:window-width="1920"
     inkscape:window-height="1016"
     id="namedview966"
     showgrid="false"
     inkscape:zoom="0.79321338"
     inkscape:cx="223.77333"
     inkscape:cy="64.993332"
     inkscape:window-x="0"
     inkscape:window-y="27"
     inkscape:window-maximized="1"
     inkscape:current-layer="g972" /><g
     id="g972"
     inkscape:groupmode="layer"
     inkscape:label="ink_ext_XXXXXX"
     transform="matrix(1.3333333,0,0,-1.3333333,0,129.98667)"><g
       id="g974"
       transform="scale(0.1)"><g
         id="g976"><g
           id="g978"
           clip-path="url(#clipPath982)"><path
             d="m 380.16,489.109 c 0,1.211 -0.117,2.461 -0.164,3.696 h -0.058 c -2.122,31.66 -27.793,58.574 -63.977,70.703 0,0 -73.066,19.004 -75.762,62.422 v 242.886 c 0,52.934 -42.929,95.903 -95.898,95.903 h -38.223 c -52.9686,0 -95.9178,-42.969 -95.9178,-95.903 V 582.488 c 0,-48.457 36.0156,-88.433 82.7148,-94.859 C 46.1758,481.16 10.1602,441.199 10.1602,392.727 V 160.52 c 0,-52.93 42.9492,-95.8794 95.9178,-95.8794 h 38.223 c 52.969,0 95.898,42.9494 95.898,95.8794 v 191.753 c 2.871,43.008 75.762,61.86 75.762,61.86 36.184,12.183 61.855,39.019 63.977,70.703 h 0.058 c 0.047,1.25 0.164,2.48 0.164,3.73 0,0.055 -0.019,0.172 -0.019,0.235 0,0.117 0.019,0.215 0.019,0.308"
             style="fill:url(#linearGradient1000);fill-opacity:1;fill-rule:nonzero;stroke:none"
             id="path1002"
             inkscape:connector-curvature="0" /></g></g><path
         d="m 10.1602,392.727 c 0,48.472 36.0156,88.433 82.7148,94.902 -46.6992,6.426 -82.7148,46.402 -82.7148,94.859 V 655.93 H 0.00390625 V 582.488 C 0.00390625,541.516 23.8125,505.129 58.9297,487.605 23.8125,470.066 0.00390625,433.684 0.00390625,392.727 V 318.953 H 10.1602 v 73.774"
         style="fill:#fff200;fill-opacity:1;fill-rule:nonzero;stroke:none"
         id="path1004"
         inkscape:connector-curvature="0" /><g
         id="g1006"><g
           id="g1008"
           clip-path="url(#clipPath1012)"><path
             d="M 534.223,974.875 H 86.8594 C 38.9492,974.875 0.00390625,935.91 0.00390625,888 V 868.816 655.93 H 10.1602 c 0,36.636 29.7968,66.465 66.5234,66.519 h 163.5154 10.168 218.719 65.137 c 69.601,0 126.211,56.621 126.211,126.235 0,69.589 -56.61,126.191 -126.211,126.191"
             style="fill:url(#linearGradient1022);fill-opacity:1;fill-rule:nonzero;stroke:none"
             id="path1024"
             inkscape:connector-curvature="0" /></g></g><g
         id="g1026"><g
           id="g1028"
           clip-path="url(#clipPath1032)"><path
             d="M 534.223,252.41 H 76.5586 C 39.957,252.488 10.1602,282.316 10.1602,318.953 H 0.00390625 V 160.52 86.8633 C 0.00390625,38.9766 38.9492,0.0117188 86.8594,0.0117188 H 534.223 c 69.601,0 126.211,56.6210812 126.211,126.1872812 0,69.594 -56.61,126.211 -126.211,126.211"
             style="fill:url(#linearGradient1042);fill-opacity:1;fill-rule:nonzero;stroke:none"
             id="path1044"
             inkscape:connector-curvature="0" /></g></g><path
         d="m 740.805,222.512 c -14.395,0 -25.235,9.351 -25.235,21.734 v 487.133 c 0,15.269 12.696,23.238 25.235,23.238 h 313.925 c 14.42,0 25.26,-9.668 25.26,-22.5 v -16.441 c 0,-12.832 -10.84,-22.5 -25.26,-22.5 H 789.469 V 529.402 h 238.371 c 14.38,0 25.23,-9.414 25.23,-21.875 v -15.449 c 0,-15.367 -12.69,-23.394 -25.23,-23.394 H 789.469 V 283.215 h 270.481 c 14.9,0 26.11,-9.336 26.11,-21.738 v -17.231 c 0,-12.383 -11.21,-21.734 -26.11,-21.734 H 740.805"
         style="fill:#bdbcbc;fill-opacity:1;fill-rule:nonzero;stroke:none"
         id="path1046"
         inkscape:connector-curvature="0" /><path
         d="m 1168.32,222.512 c -14.31,0 -25.11,9.683 -25.11,22.515 v 486.352 c 0,13.476 10.9,23.238 25.94,23.238 h 20.23 c 12.48,0 25.12,-7.969 25.12,-23.238 l 0.84,-447.426 h 265.55 c 15.13,0 26.11,-9.449 26.11,-22.476 v -17.231 c 0,-12.383 -11.23,-21.734 -26.11,-21.734 h -312.57"
         style="fill:#bdbcbc;fill-opacity:1;fill-rule:nonzero;stroke:none"
         id="path1048"
         inkscape:connector-curvature="0" /><path
         d="m 1868.25,423.152 -87.65,227.192 -86.3,-227.192 z m 95.79,-200.64 c -2.94,0 -5.84,0.308 -8.66,0.933 -7.91,1.684 -13.94,6.723 -17.72,14.946 L 1891.5,362.434 H 1671.16 L 1625.78,240.32 c -2.34,-8.609 -7.63,-14.175 -15.77,-16.543 -2.98,-0.855 -6.36,-1.265 -10.51,-1.265 h -21.71 c -12.69,0 -19.23,5.562 -22,8.886 -4.57,5.489 -5.67,12.52 -3.01,19.332 l 188.34,486.348 c 1.88,4.121 5.74,12.402 16.11,15.473 3.26,0.918 6.58,1.328 10.67,1.328 h 26.89 c 11.33,0 21.1,-6.035 26.13,-16.137 0.24,-0.469 0.43,-0.918 0.63,-1.387 l 188.79,-484.507 c 1.94,-3.594 5.07,-10.743 0.69,-18.481 -4.49,-7.359 -12.31,-10.855 -23.55,-10.855 h -23.44"
         style="fill:#bdbcbc;fill-opacity:1;fill-rule:nonzero;stroke:none"
         id="path1050"
         inkscape:connector-curvature="0" /><path
         d="m 2230.69,215.754 c -9.17,0 -21.31,0.508 -37.09,1.562 -15.41,1.036 -31.49,2.457 -47.76,4.2 -16.54,1.777 -32.37,3.843 -47.02,6.152 -15.89,2.461 -27.92,5.074 -36.71,8.023 -14.04,5.176 -20.6,16.289 -17.22,28.164 l 1.59,7.583 c 0.19,0.82 0.43,1.636 0.74,2.441 3.85,10 13.81,16.187 26.02,16.187 1.41,0 2.92,-0.093 4.52,-0.269 12.89,-1.469 26.71,-2.832 41.23,-4.043 14.63,-1.231 28.98,-2.363 43.06,-3.344 13.9,-0.972 26.96,-1.719 39.17,-2.183 12.09,-0.508 22.63,-0.747 31.61,-0.747 42.15,0 75.66,7.661 99.63,22.739 22.26,14.004 33.09,33.457 33.09,59.511 0,18.575 -2.72,34 -8.09,45.797 -5.19,11.352 -12.29,20.332 -21.7,27.461 -9.73,7.383 -22.29,13.379 -37.26,17.832 -16.42,4.868 -35.5,8.774 -56.7,11.567 -28.06,4.121 -53.58,8.906 -76.17,14.297 -24.12,5.742 -45.21,13.882 -62.66,24.199 -18.46,10.894 -32.9,25 -42.82,41.875 -9.85,16.68 -14.86,37.945 -14.86,63.164 0,48.769 18.42,86.773 54.8,112.969 35.25,25.371 83.12,38.218 142.29,38.218 25.85,0 52.37,-0.879 78.87,-2.671 27.6,-1.836 53.55,-6.543 77.09,-13.989 13.74,-3.789 21.15,-14.683 18.33,-26.676 l -0.74,-6.996 c -0.14,-1.367 -0.46,-2.711 -0.95,-4.004 -1.62,-4.175 -4.05,-7.71 -7.25,-10.464 -3.14,-2.715 -8.72,-5.942 -17.43,-5.942 -1.71,0 -3.69,0.141 -5.95,0.473 l -24.77,2.168 c -11.19,0.996 -23.51,1.972 -36.98,2.969 -13.28,0.972 -26.85,1.699 -40.71,2.183 -13.88,0.473 -26.16,0.742 -36.9,0.742 -43.58,0 -75.63,-7.871 -95.27,-23.336 -19.39,-15.273 -28.8,-36.015 -28.8,-63.418 0,-15.199 3.01,-27.406 8.93,-36.293 6.14,-9.292 14.1,-16.582 24.36,-22.261 10.99,-6.133 24.17,-10.903 39.18,-14.121 16.84,-3.657 34.74,-6.953 53.22,-9.868 24.27,-4.082 47.48,-8.726 69.22,-13.804 23.73,-5.547 44.81,-14.043 62.65,-25.278 18.52,-11.621 33.46,-27.007 44.44,-45.679 10.97,-18.696 16.56,-42.715 16.56,-71.367 0,-28.071 -5.67,-52.422 -16.81,-72.524 -11.28,-20.332 -27,-36.949 -46.75,-49.41 -19.19,-12.094 -41.78,-20.883 -67.17,-26.176 -24.34,-5.039 -50.59,-7.613 -78.06,-7.613"
         style="fill:#bdbcbc;fill-opacity:1;fill-rule:nonzero;stroke:none"
         id="path1052"
         inkscape:connector-curvature="0" /><path
         d="m 2660.64,222.512 c -15.72,0 -27.17,9.468 -27.17,22.515 v 448.891 h -141.39 c -14.9,0 -26.1,9.355 -26.1,21.758 v 16.441 c 0,13.051 10.96,22.5 26.1,22.5 h 358.45 c 14.4,0 25.25,-9.668 25.25,-22.5 v -16.441 c 0,-12.403 -10.85,-21.758 -25.25,-21.758 h -142.3 l -0.83,-448.945 c 0,-12.778 -10.91,-22.461 -25.37,-22.461 h -21.39"
         style="fill:#bdbcbc;fill-opacity:1;fill-rule:nonzero;stroke:none"
         id="path1054"
         inkscape:connector-curvature="0" /><path
         d="m 3303.09,222.512 c -5.89,0 -17.09,1.621 -26.12,12.5 l -148.94,203.511 -148.25,-201.48 c -4.9,-9.023 -15.23,-14.531 -27.61,-14.531 h -25.13 c -5.37,0 -10.31,0.879 -14.67,2.636 -5.29,2.125 -10.17,6.622 -12.05,11.129 -1.55,3.696 -2.44,9.614 2.04,16.797 l 179.25,244.106 -165.5,225.8 c -3.44,4.043 -4.87,9.786 -3.33,15.235 1.49,5.371 5.64,9.883 11.68,12.754 4.91,2.422 10.22,3.648 15.61,3.648 h 24.21 c 14.96,0 21.99,-6.441 24.83,-10.254 1.06,-0.933 2.01,-1.968 2.86,-3.086 l 136.05,-185.386 135.27,185.371 c 9.59,11.734 21.42,13.355 27.67,13.355 h 25.15 c 5.34,0 10.61,-1.226 15.71,-3.672 5.97,-2.871 10.05,-7.359 11.56,-12.652 1.55,-5.41 0.17,-11.098 -3.86,-16.059 L 3174.58,497.18 3353.09,254.172 c 0.8,-1.113 1.47,-2.285 1.96,-3.496 2.85,-6.938 1.68,-14.004 -3.23,-19.453 -2.92,-3.262 -9.74,-8.711 -22.66,-8.711 h -26.07"
         style="fill:#bdbcbc;fill-opacity:1;fill-rule:nonzero;stroke:none"
         id="path1056"
         inkscape:connector-curvature="0" /></g></g></svg>